# xmcd CD database file
#
# Track frame offsets:
#	150
#	22685
#	44660
#	66280
#	84903
#	103815
#	119246
#	134817
#	149653
#	164996
#	180402
#
# Disc length: 2611 seconds
#
# Revision: 2
# Processed by: cddbd v1.5.2PL0 Copyright (c) Steve Scherf et al.
# Submitted via: CDex 1.51
#
DISCID=ab0a310b
DTITLE=Various Spanish - Merengue 1
DYEAR=2010
DGENRE=Merengue
TTITLE0=Eddy Herrera - Pegame Tu Vicio (merengue)(3)
TTITLE1=Eddy Herrera - Tu Eres Ajena
TTITLE2=Fernando Villalona - Soy Dominicano (slower merengue)(3)
TTITLE3=Fernandito Villalona - Yo Soy Aquel
TTITLE4=Juan Luis Guerra - Burbujas de Amor
TTITLE5=Juan Luis Guerra - Como Yo
TTITLE6=Juan Luis Guerra - La Travesia
TTITLE7=Juan Luis Guerra - Las Avispas
TTITLE8=Juan Luis Guerra - Vale La Pena (merengue)(3)
TTITLE9=Juan Luis Guerra - Visa para un sueno(3)
TTITLE10=Juan Luis Guerra - Como Yo
EXTD=YEAR: 2010
EXTT0=
EXTT1=
EXTT2=
EXTT3=
EXTT4=
EXTT5=
EXTT6=
EXTT7=
EXTT8=
EXTT9=
EXTT10=
PLAYORDER=
